<svg width="600" height="600" xmlns="http://www.w3.org/2000/svg">
 <g id="Layer_1">
  <title>Layer 1</title>
  <path id="svg_1" d="m308.5,389c-69.33702,0 -125.5,-53.70166 -125.5,-120c0,-66.29834 56.16298,-120 125.5,-120c69.33702,0 125.5,53.70166 125.5,120c0,66.29834 -56.16298,120 -125.5,120z" opacity="undefined" stroke="#FFDFB8" fill="#3e9be8"/>
  <ellipse id="svg_3" cy="196" cx="531" stroke="#FFDFB8" fill="#884D58"/>
  <ellipse id="svg_4" cy="291" cx="361" stroke="#FFDFB8" fill="#884D58"/>
  <ellipse id="svg_5" cy="293" cx="361" stroke="#FFDFB8" fill="#884D58"/>
  <polyline stroke-linecap="round" id="svg_9" points="396,244 396,244 " stroke="#000000" fill="none"/>
  <polyline stroke-linecap="round" id="svg_11" points="368,236 368,236 " stroke="#FFDFB8" fill="none"/>
  <polyline stroke-linecap="round" id="svg_12" points="447,198 447,198 " stroke="#FFDFB8" fill="none"/>
  <polyline stroke-linecap="round" id="svg_13" points="365,183 365,183 " stroke="#FFDFB8" fill="none"/>
  <path d="m377,168c0,0 0,0 -1,0c-1,0 -1.77023,1.02675 -2,2c-0.51373,2.17625 -1.5405,4.0535 -2,6c-0.51373,2.17625 -1,4 -1,5c0,1 0,3 0,4c0,1 0,3 0,4c0,1 0,3 0,4c0,2 0,4 0,5c0,2 -1.4588,3.69344 -2,5c-0.76538,1.84776 -1,3 -3,5c-1,1 -1.58578,2.58578 -3,4c-0.70709,0.70711 -1,1 -1,2c0,1 0,3 0,4c0,0 0,1 0,1c0,1 0.61731,1.07613 1,2c1.0824,2.61313 3.14429,4.93414 4,7c1.21014,2.92157 2,5 2,6c0,2 0,4 0,6c0,2 0,3 0,4c0,1 0,3 0,3c0,1 0,2 0,2c0,1 1,1 1,1c0,1 1,2 1,2c1,1 1.93414,1.14429 4,2c2.92157,1.21014 7,1 10,2c3,1 5.186,1.69254 7,3c1.14728,0.8269 2,2 3,3c1,1 1,2 1,3c0,1 0,3 0,5c0,2 -1.11588,5.96384 -2,9c-1.15277,3.95868 -1.38907,8.03748 -2,13c-0.50378,4.09222 -1,7 -1,8c0,2 0,3 0,4c0,2 0,3 0,3c0,1 0,2 0,2c0,1 0,1 0,1c0,0 1,0 1,0c1,-1 2,-2 3,-3c1,-1 3,-2 6,-3c3,-1 5.82376,-2.48627 8,-3c1.9465,-0.4595 2,0 3,0c1,0 2,1 2,1c1,1 1,2 2,3c1,1 1.69345,3.4588 3,4c0.92389,0.38269 1,0 2,0c0,0 0,0 0,0c1,0 1,0 1,0c0,0 1,0 1,0c0,0 0,-1 0,-1c0,0 1,-1 1,-1c0,-1 1,-1 1,-1c0,-1 1,-2 1,-2c0,-1 0.29291,-0.29291 1,-1c0.70709,-0.70709 0,-1 0,-2c0,0 1,-1 1,-1c0,-1 -0.70709,-1.29291 0,-2c0.70709,-0.70709 1,-1 1,-1c0,-1 1,-1 1,-1c0,-1 0,-1 0,-2c0,0 1,-1 1,-2c0,0 -0.70709,-1.29291 0,-2c0.70709,-0.70709 1,-1 1,-1c0,-1 0,-1 0,-1c0,-1 0,-1 0,-2c0,-1 0,-1 0,-2c0,0 0,0 0,-1c0,-1 0,-2 0,-2c0,0 0,-1 0,-1c0,-1 0,-1 0,-2c0,0 0,0 1,-1c0,0 0,-1 0,-1c0,0 0,-1 0,-1c0,-1 0,-2 0,-2c0,0 0,-1 0,-1c0,0 0,-1 0,-1c0,-1 0,-2 0,-2c0,-1 0,-2 0,-3c0,-1 0,-2 0,-2c0,-1 0,-1 0,-2c0,0 0,0 0,-1c0,0 0,0 0,-1c0,0 0,0 0,-1c0,0 0,-1 -1,-2c0,0 0,-1 0,-1c0,0 0,-1 0,-1c-1,-1 -1,-1 -1,-2c0,-1 0,-1 0,-1c0,-1 0,-1 -1,-2c0,0 0,0 0,0c0,-1 0,-1 0,-2c0,0 0,-1 0,-1c-1,-1 -1,-2 -1,-2c0,-1 0,-2 0,-2c0,-1 0,-2 0,-2c0,0 0,-1 0,-1c0,-1 0,-1 0,-2c0,0 -1,0 -1,-1c0,0 0,-1 0,-1c0,-1 0,-1 0,-2c0,0 0,-1 0,-1c-1,0 -1,-1 -1,-1c0,0 0,-1 0,-1c-1,0 -1,0 -1,-1c0,0 0,0 0,-1c0,0 0,0 -1,-1c0,0 0,-1 0,-1c0,-1 -1,-1 -1,-2c0,0 0,-1 0,-1c0,0 -1,-1 -1,-1c0,-1 0.38269,-1.07613 0,-2c-0.5412,-1.30656 -1,-1 -1,-2c0,0 0,0 -1,-1c0,0 0,0 0,-1c0,0 -1,0 -1,-1c0,0 -1,-1 -1,-1c-1,0 -1,-1 -1,-1c-1,-1 -0.29291,-1.29289 -1,-2c-0.70709,-0.70711 -0.29291,-0.29289 -1,-1c-0.70709,-0.70711 -1,-1 -1,-1c-1,-1 -1,-1 -1,-1c-1,-1 -0.29291,-1.29289 -1,-2c-0.70709,-0.70711 -1,-1 -1,-1c-1,-1 -1,-2 -1,-2c0,0 -1,-1 -1,-1c0,0 0,-1 0,-1c-1,-1 -1,-1 -1,-2c0,0 -0.29291,-0.29289 -1,-1c-0.70709,-0.70711 0,-1 0,-1c0,-1 -1,-1 -1,-2c0,0 0,-1 -1,-1c0,0 0,-1 0,-1c0,0 0,-1 0,-1c-1,0 -1,-1 -1,-1c0,0 -1,-1 -1,-1c0,0 -1,-1 -1,-1c-1,0 -1,-1 -1,-1c-1,0 -1.29291,-0.29289 -2,-1c-0.70709,-0.70711 -0.29291,-1.29289 -1,-2c-0.70709,-0.70711 -1,-1 -2,-1c-1,0 -1.29291,-0.29289 -2,-1c-0.70709,-0.70711 -0.29291,-1.29289 -1,-2c-0.70709,-0.70711 -1,0 -2,-1c0,0 -1,0 -1,-1c0,0 -1,0 -1,-1c0,0 -0.29291,-0.29289 -1,-1c-0.70709,-0.70711 -1,0 -2,-1c0,0 -0.29291,0.70711 -1,0c-0.70709,-0.70711 -1,-1 -1,-1c0,0 0,-1 -1,-1c0,0 0.70709,-0.29289 0,-1c-0.70709,-0.70711 -1,0 -1,0c0,-1 -1,-1 -1,-1c0,0 -1,-1 -1,-1c0,0 -1,0 -1,-1c0,0 0,0 0,0c-1,0 -1,0 -1,-1c0,0 0,0 0,0c-1,0 -1,0 -1,0c0,-1 0,-1 -1,-1c0,0 0,0 0,0c0,0 -1,-1 -1,-1l0,0l0,0" id="svg_17" stroke="#000000" fill="#529D94"/>
  <polyline stroke-linecap="round" id="svg_18" points="469,501 469,501 " stroke="#FFDFB8" fill="none"/>
  <polyline stroke-linecap="round" id="svg_19" points="237,287 237,286 " stroke="#FFDFB8" fill="none"/>
  <path d="m257,160c0,0 0,2 0,4c0,4 0,11 0,18c0,5 0,10 0,13c0,3 0,5 0,6c0,1 0,2 0,3c0,1 0.61731,2.07613 1,3c0.5412,1.30656 1.70547,2.34619 4,4c3.62799,2.6149 6.88153,5.19028 10,7c1.93399,1.12234 3.82376,2.48625 6,3c1.9465,0.4595 4.02676,-0.22975 5,0c2.17624,0.51375 4,1 6,1c2,0 3.07611,0.61731 4,1c1.30655,0.5412 1.61731,1.07613 2,2c0.5412,1.30656 1.23462,2.15224 2,4c0.5412,1.30656 1.48627,1.82375 2,4c0.22977,0.97325 -0.14804,3.22836 1,6c0.5412,1.30656 1,2 1,3c0,1 0.4588,1.69344 1,3c0.38269,0.92387 -0.4588,0.69344 -1,2c-0.38269,0.92387 -1,1 -2,2c-1,1 -2.85272,3.1731 -4,4c-1.814,1.30745 -3,2 -5,2c-2,0 -4,0 -6,0c-2,0 -5.07843,0.21014 -8,-1c-4.13171,-1.71141 -9,-2 -12,-2c-3,0 -5.22836,-1.14806 -8,0c-1.30656,0.5412 -2.4588,1.69344 -3,3c-0.38269,0.92387 0,2 0,4c0,1 -0.1731,1.85272 -1,3c-1.30745,1.814 -2.41885,3.41885 -4,5c-1.58115,1.58115 -1.23463,3.15225 -2,5c-0.5412,1.30655 -1,1 -1,2c0,1 -0.38269,1.07611 0,2c0.5412,1.30655 0.61731,1.07611 1,2c0.5412,1.30655 1.4588,1.69345 2,3c0.38269,0.92389 0.67964,3.02582 1,5c0.50655,3.12143 1,5 1,6c0,2 0,3 -1,4c-1,1 -3,2 -4,3c-2,2 -3,3 -4,4c-1,1 -2.4588,2.69345 -3,4c-0.38269,0.92389 -1.07613,2.61731 -2,3c-1.30656,0.5412 -1,2 -2,3c0,0 -1,1 -2,1c-1,0 -2,0 -3,-1c-1,-1 -3.21167,-1.71411 -6,-4c-1.09367,-0.89661 -3,-2 -3,-2c-1,0 -1,1 -2,1c0,0 -1,1 -3,1c-1,0 -2,0 -4,0c-1,0 -3,1 -4,1c0,0 -1,1 -1,1c0,0 -1,1 -1,1c0,1 0,1 0,2c0,0 0,0 0,1c0,0 -1,0 -1,1c0,0 -1,0 -1,0c0,0 -1,0 -1,1c0,0 0,0 0,0c-1,0 -1,0 -2,0c0,0 0,0 -1,0c0,0 0,0 -1,0c0,0 0,0 0,0c0,0 -1,1 -1,1c0,0 0,0 0,0c-1,0 -1,0 -1,0c0,-1 -0.29289,-0.29291 -1,-1c-0.70711,-0.70709 0,-1 0,-1c0,-1 0,-1 0,-1c0,-1 -0.29289,-1.29291 -1,-2c-0.70711,-0.70709 -1,-1 -2,-1c0,0 -1,-1 -1,-1c0,-1 -1,-1 -1,-1c0,-1 0,-1 0,-1c-1,-1 -1,-1 -1,-2c0,0 -1,0 -1,-1c0,-1 0,-1 0,-2c0,-1 -0.29289,-1.29291 -1,-2c-0.70711,-0.70709 0,-2 0,-3c0,-1 0,-1 0,-2c0,-1 0,-2 -1,-3c0,0 0,-1 0,-1c0,-1 0,-2 0,-3c0,-1 -0.4588,-0.69345 -1,-2c-0.38269,-0.92389 0,-2 0,-2c0,-1 -1,-2 -1,-3c0,0 0.38269,-1.07611 0,-2c-0.5412,-1.30655 -1,-1 -1,-2c0,0 0,-1 0,-2c0,-1 0,-1 0,-2c0,-1 0,-2 0,-2c0,-1 0,-2 0,-2c0,-1 0,-1 0,-2c0,0 0,-1 0,-1c0,-1 0,-1 0,-2c0,0 0,-1 0,-1c0,-1 0,-1 0,-2c0,-1 0,-1 0,-2c0,-1 0,-1 0,-2c0,0 0,-1 0,-1c0,-1 0,-2 0,-2c0,-1 0,-1 0,-2c0,-1 0,-2 0,-2c0,-1 0,-2 0,-3c0,-1 0,-2 0,-2c0,-1 -0.38269,-1.07613 0,-2c0.5412,-1.30656 1.4588,-1.69344 2,-3c0.38269,-0.92387 -0.70711,-2.29289 0,-3c0.70711,-0.70711 1,-1 1,-1c1,-1 0.69255,-2.186 2,-4c0.8269,-1.14726 1.48625,-1.82375 2,-4c0.22975,-0.97325 0.77025,-2.02675 1,-3c0.51375,-2.17625 1,-3 1,-3c1,-1 1.4588,-1.69344 2,-3c0.38269,-0.92387 0.4588,-1.69344 1,-3c0.38269,-0.92387 0.4588,-0.69344 1,-2c0.38269,-0.92387 0.61731,-2.07613 1,-3c0.5412,-1.30656 1.4588,-1.69344 2,-3c0.38269,-0.92387 0.61731,-1.07613 1,-2c0.5412,-1.30656 1,-2 2,-3c1,-1 1.4588,-1.69344 2,-3c0.38269,-0.92387 1.29289,-1.29289 2,-2c0.70711,-0.70711 0,-1 1,-2c1,-1 1,-1 2,-2c1,-1 1.69344,-2.4588 3,-3c0.92387,-0.38269 2,-1 3,-2c1,-1 1.69344,-2.4588 3,-3c0.92387,-0.38269 2.4588,-0.69344 3,-2c0.38269,-0.92387 1.07613,-1.61731 2,-2c1.30656,-0.5412 2,-2 3,-3c0,0 1,-1 1,-1c1,0 1.29289,-0.29289 2,-1c0.70711,-0.70711 1,-2 2,-2c0,0 1,-1 1,-1c1,0 2.29289,-0.29289 3,-1c0.70711,-0.70711 0.69344,-1.4588 2,-2c0.92387,-0.38269 2,-1 3,-2c1,-1 2,-1 3,-2c1,-1 2,-1 3,-2c0,0 1,-1 2,-1c0,0 1,-1 1,-1c1,-1 2,-1 2,-1c0,-1 1,-1 1,-1c1,-1 1,-1 1,-1c0,0 1,0 1,0c0,0 1,-1 1,-1c1,0 1,0 2,0l0,0l0,-1l1,0" id="svg_42" stroke="#000000" fill="#529D94"/>
  <polyline stroke-linecap="round" id="svg_43" points="676,470 676,470 " stroke="#000000" fill="none"/>
  <path d="m285,323c0,-1 0,-1 0,-1c0,-1 0,-3 1,-4c2,-2 4,-3 6,-4c2,-1 4.07843,-0.78986 7,-2c2.06586,-0.85571 5,-2 8,-3c3,-1 6,-1 8,-1c1,0 2,0 3,0c1,0 1.29291,-0.29291 2,-1c0.70709,-0.70709 1.1731,-0.85272 2,-2c1.30746,-1.814 2,-3 3,-4c1,-1 1.29291,-1.29291 2,-2c0.70709,-0.70709 2,0 2,0c1,0 2,0 2,0c1,-1 1,-1 1,-1c1,0 0.61731,1.07611 1,2c0.5412,1.30655 0.23462,3.15225 1,5c0.5412,1.30655 2,3 2,3c1,1 3.02676,1.77023 4,2c2.17624,0.51373 3,1 4,2c1,1 1,1 2,2c0,0 1,0 1,0c1,0 1,0 2,0c1,0 2,0 3,0c0,0 1,0 2,1c1,1 1,3 2,5c1,2 1,4 1,6c0,2 0,3 0,5c0,1 0.48056,4.03873 0,7c-0.50653,3.12143 -1.48627,4.82376 -2,7c-0.4595,1.9465 -1,3 -1,4c0,2 -0.61731,3.07611 -1,4c-0.5412,1.30655 -2,2 -3,3c-1,1 -3,3 -5,4c-2,1 -2.82376,2.48627 -5,3c-1.9465,0.4595 -4,0 -6,0c-3,0 -6,0 -9,0c-3,0 -6,0 -8,0c-2,0 -4,0 -5,0c-2,0 -3.69345,0.4588 -5,1c-1.84775,0.76538 -3.70547,2.34619 -6,4c-1.814,1.30746 -3.82376,2.48627 -6,3c-0.97324,0.22977 -3.0535,-0.4595 -5,0c-2.17624,0.51373 -3,1 -5,1c-2,0 -2.82376,-0.48627 -5,-1c-1.9465,-0.4595 -3,0 -4,-1c-1,-1 -2.4588,-1.69345 -3,-3c-0.76538,-1.84775 -1.49347,-3.87857 -2,-7c-0.32037,-1.97418 0,-3 0,-3c0,-1 0,-1 1,-2c0,0 1,-1 1,-2c0,-1 1,-1 1,-2c0,0 1,-1 1,-1c1,-1 1,-1 2,-2c1,-1 2,-2 2,-2c1,-1 1,-1 1,-1c0,-1 0,-1 0,-2c0,-1 0.38269,-2.07611 0,-3c-0.5412,-1.30655 -1,-2 -1,-2c0,-1 0,-2 0,-2c0,-1 0,-2 0,-4c0,0 1,-1 1,-2c0,0 0.29291,-1.29291 1,-2c0.70709,-0.70709 1,-1 1,-1c0,-1 0.29291,-0.29291 1,-1c0.70709,-0.70709 0,-1 1,-1c0,0 0,0 1,-1c0,0 0,0 0,0c1,0 1,0 1,0c0,-1 0,-1 0,-1l0,-1l1,0l0,0" id="svg_45" stroke="#000000" fill="#559E84"/>
  <polyline stroke-linecap="round" id="svg_46" points="713,371 714,371 " stroke="#000000" fill="none"/>
  <polyline stroke-linecap="round" id="svg_47" points="422,259 422,259 " stroke="#000000" fill="none"/>
 </g>
</svg>