<svg width="500" height="500" xmlns="http://www.w3.org/2000/svg">
 <title>Copy</title>
 <g id="Layer_1">
  <title>Layer 1</title>
  <path stroke-width="10" d="m85.99866,25.50227c0,0 0,4.00003 0,14.00012c0,17.00014 0,41.00034 0,72.00059c0,37.00031 0,80.00066 0,123.00101c0,37.00031 0,64.00052 0,88.00073c0,22.00018 0,40.00031 0,53.00043c0,12.00009 0,22.00018 0,30.00024c0,6.00006 0,11.00009 0,15.00012c0,2.00003 0,4.00003 0,6.00006c0,3.00003 0,6.00003 0,7.00006c0,1 0,2 0,2c0,2.00003 0,4.00003 0,6.00006c0,3.00003 0,5.00003 0,7.00006c0,2 0,7.00006 0,10.00006c0,2.00003 0,5.00006 0,8.00009c0,4.00003 0,8.00006 0,11.00006c0,2.00003 0,4.00006 0,6.00006c0,2.00003 1.00001,3.00003 1.00001,4.00003c0,1 1.00001,2.00003 1.00001,2.00003l0,1l0,0l0,1" id="svg_14" stroke="#000" fill="none"/>
  <path stroke-width="10" d="m29.77295,20.56439c-35.29777,1.7813 125.91858,0 29.96688,0.89065c41.06573,0.89065 105.44142,-1.54936 188.68037,-0.89065c73.2587,0.57973 118.95893,3.68935 150.94429,11.59428c16.76719,4.14388 28.68815,7.40283 33.29653,15.07257c2.43283,4.04894 3.85774,10.36051 3.32966,17.39142c-0.54908,7.3104 -10.74074,20.05078 -29.96687,41.73942c-25.06781,28.27851 -55.62949,55.99215 -91.01053,80.00055c-29.21159,19.822 -51.74604,31.1569 -68.81285,38.26114c-9.78134,4.07159 -16.64827,5.79715 -17.75814,6.95657l-1.10989,0c-1.00869,0.20729 9.47977,-3.14801 -3.02607,0.62188" id="svg_18" stroke="#000" fill="none"/>
  <path transform="rotate(0.00223225, 310.995, 383.512)" stroke-width="10" d="m229.17355,285.28406c0,0 -5.51158,-6.53377 -5.16835,-5.69128c0.97078,2.38291 3.58753,3.64761 5.38129,5.47141c1.79376,1.8238 2.69064,3.64761 4.4844,5.47141c1.79378,1.8238 3.58754,3.64761 6.27818,6.38332c2.69065,2.73571 4.23239,5.75431 7.17507,8.20711c2.5008,2.08449 4.228,4.75255 6.27817,7.29525c2.41242,2.99196 3.65974,5.00354 5.3813,7.29522c1.96286,2.6129 4.228,4.75252 6.27817,7.29522c2.41243,2.99196 4.22802,4.75252 6.27818,7.29522c2.41243,2.99199 4.68191,5.28436 7.17506,8.20711c2.93822,3.44449 5.57881,6.19626 8.07196,9.11904c2.93819,3.44449 5.13374,6.58642 8.07193,10.03093c2.49315,2.92275 5.65953,6.12707 8.07193,9.11904c2.05016,2.54269 3.77302,5.30056 5.3813,7.29522c2.05016,2.54269 4.37467,4.6197 5.3813,6.38332c1.6231,2.84375 3.33112,4.75255 5.38128,7.29522c1.60829,1.99463 3.31177,4.72912 4.48443,6.38332c0.74163,1.0462 2.84587,2.60141 3.58753,3.64761c1.17263,1.65417 1.79375,4.5595 3.58753,6.38332c1.79375,1.82379 3.33112,4.75252 5.38128,7.29522c1.60829,1.99466 2.69065,4.5595 4.48443,6.38332c2.69065,2.73571 4.20865,5.64102 5.38128,7.29522c1.48329,2.09242 3.58753,3.64761 5.3813,5.47143c1.79378,1.82379 5.1388,5.68009 8.96883,10.03093c3.38364,3.84375 6.44883,6.27526 8.07193,9.11901c1.0066,1.76362 1.79378,2.73571 2.69065,3.64761c0.89688,0.91192 1.51805,1.99344 2.69065,3.64761c0.74163,1.04623 1.51799,1.99344 2.69065,3.64764c0.74163,1.0462 1.79375,1.82379 2.69063,2.73569c0.8969,0.91192 1.45055,0.98133 1.79378,1.82382c0.48539,1.19144 1.79375,1.82379 2.69065,2.73571c0.89688,0.9119 0.89688,1.82379 1.79375,2.73569c0.8969,0.91192 1.45055,0.98133 1.79378,1.82382c0.48539,1.19144 2.20524,1.54425 2.69065,2.73571c0.34323,0.84249 0.2627,1.179 0.89688,1.82379c0.63417,0.64479 0.89688,0.91192 0.89688,0.91192c0.89688,0 0.2627,0.2671 0.89688,0.9119c0.6342,0.64482 0.8969,0.9119 0.8969,0.9119c0,0 0.89688,0.9119 0.89688,0.9119c0.89688,0.91192 1.1596,1.17902 1.79378,1.82382c0.63417,0.64479 0.89688,0.9119 0.89688,0.9119l0,0l0.89688,0" id="svg_19" stroke="#000" fill="none"/>
  <path d="m122.99896,257.50419c0,0 12.66872,-1.00001 51.73062,-1.00001c64.39938,0 139.356,0 199.53244,0c40.11762,0 69.678,0 87.62534,0c9.50156,0 15.83591,0 19.00309,0c1.05575,0 2.11147,0 2.11147,0l0,0l-34.52083,0" id="svg_24" stroke-width="10" stroke="#000" fill="none"/>
  <polyline stroke-linecap="round" id="svg_25" points="680.0035452842712,318.50468277931213 680.0035452842712,318.50468277931213 " stroke-width="10" stroke="#000" fill="none"/>
  <polyline stroke-linecap="round" id="svg_26" points="736.0040059089661,159.50337493419647 736.0040059089661,159.50337493419647 " stroke-width="10" stroke="#000" fill="none"/>
  <ellipse ry="6.00005" rx="6.50005" id="svg_32" cy="68.50263" cx="348.50082" stroke-width="10" stroke="#000" fill="#000000"/>
  <ellipse id="svg_33" cy="167.50344" cx="639.00321" stroke-width="10" stroke="#000" fill="#000000"/>
 </g>
</svg>