<svg width="600" height="600" xmlns="http://www.w3.org/2000/svg">
 <title>Angry Copy</title>

 <g id="Layer_1">
  <title>Layer 1</title>
  <path stroke-width="20" d="m142.99866,68.50227c0,0 0,4.00003 0,14.00012c0,17.00014 0,41.00034 0,72.00059c0,37.00031 0,80.00066 0,123.00101c0,37.00031 0,64.00052 0,88.00073c0,22.00018 0,40.00031 0,53.00043c0,12.00009 0,22.00018 0,30.00024c0,6.00006 0,11.00009 0,15.00012c0,2.00003 0,4.00003 0,6.00006c0,3.00003 0,6.00003 0,7.00006c0,1 0,2 0,2c0,2.00003 0,4.00003 0,6.00006c0,3.00003 0,5.00003 0,7.00006c0,2 0,7.00006 0,10.00006c0,2.00003 0,5.00006 0,8.00009c0,4.00003 0,8.00006 0,11.00006c0,2.00003 0,4.00006 0,6.00006c0,2.00003 1.00001,3.00003 1.00001,4.00003c0,1 1.00001,2.00003 1.00001,2.00003c0,4 -2,-41 -2,-37" id="svg_14" stroke="#000" fill="none"/>
  <path stroke-width="20" d="m96.77295,63.56439c-35.29777,0.7813 87.91858,-1 -8.03312,-0.10935c42.06573,-1.10935 132.44142,-0.54936 215.68037,0.10935c73.2587,0.57973 118.95893,3.68935 150.94429,11.59428c16.76719,4.14388 28.68815,7.40283 33.29653,15.07257c2.43283,4.04894 3.85774,10.36051 3.32966,17.39142c-0.54908,7.3104 -10.74074,20.05078 -29.96687,41.73942c-25.06781,28.27851 -55.62949,55.99215 -91.01053,80.00055c-29.21159,19.822 -128.74604,60.1569 -69.81285,37.26114c-9.78134,4.07159 29.35173,-15.20285 -16.75814,7.95657l-1.10989,0c-1.00869,0.20729 -11.52023,5.85199 -3.02607,0.62188" id="svg_18" stroke="#000" fill="none"/>
  <path fill="#884D58" stroke="#FFDFB8" transform="rotate(-30.7453, 509.801, 256.801)" id="svg_1" d="m579.79678,217.50941c-2.54576,-3.46163 -6.55338,-5.80774 -11.71255,-6.89799c-0.11655,-4.72981 -1.81691,-7.78697 -3.72051,-9.72926c-1.90329,-1.94261 -4.89907,-3.67748 -9.53392,-3.79674c-1.06836,-5.26488 -3.36704,-9.35461 -6.75949,-11.95318c-3.64302,-2.79011 -8.35948,-3.74133 -13.63966,-2.75187c-11.57281,2.16818 -26.01279,13.94473 -35.11606,28.63877c-7.30701,11.79924 -6.7579,22.35267 -5.01023,29.12815c1.50917,5.85182 4.56942,11.39185 8.66564,15.84262l-64.60673,65.92983c-2.17038,2.21485 -2.17038,5.80612 0,8.02097c1.08519,1.10742 2.50765,1.6613 3.93012,1.6613s2.84461,-0.55355 3.93012,-1.6613l23.77508,-24.26222c7.88755,6.29712 17.54596,9.71176 27.71886,9.71176c12.04538,0 23.36953,-4.78685 31.88685,-13.47869c1.04232,-1.06367 1.62794,-2.50621 1.62794,-4.01065s-0.58563,-2.94697 -1.62794,-4.01065c-8.51732,-8.69184 -19.84179,-13.47869 -31.88685,-13.47869c-1.02707,0 -2.04843,0.03759 -3.06375,0.10663l16.20003,-16.53196c4.27565,3.95036 9.51073,6.90706 15.03386,8.39043c2.41016,0.64754 5.30781,1.13368 8.57544,1.13368c5.73273,0 12.60306,-1.49731 19.96819,-6.24721c14.39837,-9.28947 25.93816,-24.02531 28.06312,-35.83492c0.96895,-5.38869 0.03652,-10.20179 -2.69757,-13.91881zm-62.7498,80.39149c-5.63714,3.99509 -12.32168,6.14577 -19.32984,6.14577s-13.69301,-2.15068 -19.32984,-6.14577c5.63682,-3.99509 12.32136,-6.14577 19.32984,-6.14577s13.6927,2.15068 19.32984,6.14577zm37.10827,-76.35557c-3.41404,7.75813 -9.38592,16.40395 -15.97391,23.12725c-5.77307,5.89136 -11.08754,9.33095 -15.36955,9.94737c-3.04088,0.4372 -5.61301,-0.53864 -8.09621,-3.07272c-2.48288,-2.53408 -3.43977,-5.15923 -3.01071,-8.26209c0.60373,-4.36942 3.97458,-9.79278 9.74733,-15.68414c6.58831,-6.7233 15.06054,-12.81721 22.6629,-16.30121c4.83651,-2.21647 8.24865,-2.87016 10.27167,-2.87016c1.15982,0 1.86359,0.21487 2.11702,0.4735c0.69519,0.70879 1.06899,4.87727 -2.34854,12.6422zm-45.44489,-4.46535c7.33114,-11.83327 19.25171,-21.95468 27.72775,-23.54306c2.17864,-0.40836 3.84818,-0.18376 4.95941,0.66731c1.14966,0.88056 2.00968,2.60408 2.50956,4.96542c-1.37102,0.49424 -2.81476,1.08052 -4.34552,1.78186c-8.89938,4.07871 -18.3647,10.86812 -25.96896,18.62787c-4.04572,4.12862 -7.12852,8.08384 -9.2862,11.92564c-0.02731,-4.80629 1.4393,-9.63787 4.40396,-14.42504zm62.8508,12.29964c-1.55617,8.64971 -11.47436,20.8142 -23.06972,28.29523c-4.69137,3.02573 -9.42594,4.52239 -14.13605,4.49452c3.76466,-2.20189 7.64047,-5.34753 11.68587,-9.47582c7.60395,-7.75975 14.25768,-17.41901 18.25449,-26.50105c0.68757,-1.56213 1.26208,-3.03578 1.74608,-4.43488c2.31393,0.51012 4.00285,1.38776 4.86541,2.56066c0.83398,1.13432 1.05375,2.83743 0.65391,5.06135z"/>
  <path stroke-width="20" d="m297.17403,341.28363c0,0 -16.51209,-19.53334 -16.16886,-18.69085c0.97078,2.38291 3.58753,3.64761 5.38129,5.47141c1.79376,1.8238 2.69064,3.64761 4.4844,5.47141c1.79378,1.8238 3.58754,3.64761 6.27818,6.38332c2.69065,2.73571 4.23239,5.75431 7.17507,8.20711c2.5008,2.08449 4.228,4.75255 6.27817,7.29525c2.41242,2.99196 3.65974,5.00354 5.3813,7.29522c1.96286,2.6129 4.228,4.75252 6.27817,7.29522c2.41243,2.99196 4.22802,4.75252 6.27818,7.29522c2.41243,2.99199 4.68191,5.28436 7.17506,8.20711c2.93822,3.44449 5.57881,6.19626 8.07196,9.11904c2.93819,3.44449 5.13374,6.58642 8.07193,10.03093c2.49315,2.92275 5.65953,6.12707 8.07193,9.11904c2.05016,2.54269 3.77302,5.30056 5.3813,7.29522c2.05016,2.54269 4.37467,4.6197 5.3813,6.38332c1.6231,2.84375 3.33112,4.75255 5.38128,7.29522c1.60829,1.99463 3.31177,4.72912 4.48443,6.38332c0.74163,1.0462 2.84587,2.60141 3.58753,3.64761c1.17263,1.65417 1.79375,4.5595 3.58753,6.38332c1.79375,1.82379 3.33112,4.75252 5.38128,7.29522c1.60829,1.99466 2.69065,4.5595 4.48443,6.38332c2.69065,2.73571 4.20865,5.64102 5.38128,7.29522c1.48329,2.09242 3.58753,3.64761 5.3813,5.47143c1.79378,1.82379 5.1388,5.68009 8.96883,10.03093c3.38364,3.84375 6.44883,6.27526 8.07193,9.11901c1.0066,1.76362 1.79378,2.73571 2.69065,3.64761c0.89688,0.91192 1.51805,1.99344 2.69065,3.64761c0.74163,1.04623 1.51799,1.99344 2.69065,3.64764c0.74163,1.0462 1.79375,1.82379 2.69063,2.73569c0.8969,0.91192 1.45055,0.98133 1.79378,1.82382c0.48539,1.19144 1.79375,1.82379 2.69065,2.73571c0.89688,0.9119 0.89688,1.82379 1.79375,2.73569c0.8969,0.91192 1.45055,0.98133 1.79378,1.82382c0.48539,1.19144 2.20524,1.54425 2.69065,2.73571c0.34323,0.84249 0.2627,1.179 0.89688,1.82379c0.63417,0.64479 0.89688,0.91192 0.89688,0.91192c0.89688,0 11.26325,14.26667 0.89688,0.9119c-10.36637,-13.35477 0.8969,0.9119 0.8969,0.9119c0,0 0.89688,0.9119 0.89688,0.9119c0.89688,0.91192 1.1596,1.17902 1.79378,1.82382c0.63418,0.6448 1.897,3.91186 0.89688,0.9119l0,0l0.89688,0" id="svg_19" stroke="#000" fill="none" transform="rotate(0.00223225, 368, 427.161)"/>
  <path d="m201.8975,299.50419c0,0 -9.48356,-0.00001 26.37316,-0.00001c59.11517,0 127.92131,0 183.16005,0c36.82582,0 63.96066,0 80.43535,0c8.72192,0 14.53651,0 17.44381,0c0.96912,0 1.93822,0 1.93822,0l2.75384,1l-34.4421,-1" id="svg_24" stroke-width="20" stroke="#000" fill="none"/>
  <polyline stroke-linecap="round" id="svg_25" points="680.0035452842712,318.50468277931213 680.0035452842712,318.50468277931213 " stroke-width="10" stroke="#000" fill="none"/>
  <polyline stroke-linecap="round" id="svg_26" points="736.0040059089661,159.50337493419647 736.0040059089661,159.50337493419647 " stroke-width="10" stroke="#000" fill="none"/>
  <path fill="#000000" stroke="#000" stroke-width="20" opacity="undefined" d="m390.00083,140.50268c-7.73483,0 -14.00005,-5.37019 -14.00005,-12.00005c0,-6.62986 6.26521,-12.00005 14.00005,-12.00005c7.73483,0 14.00005,5.37019 14.00005,12.00005c0,6.62986 -6.26521,12.00005 -14.00005,12.00005z" id="svg_32"/>
  <ellipse id="svg_33" cy="167.50344" cx="639.00321" stroke-width="10" stroke="#000" fill="#000000"/>
 </g>
</svg>
