<svg width="600" height="600" xmlns="http://www.w3.org/2000/svg">
 <title>Angry Copy</title>

 <g id="Layer_1">
  <title>Layer 1</title>
  <path fill="none" stroke="#000" id="svg_14" d="m142.99866,68.50227c0,0 0,4.00003 0,14.00012c0,17.00014 0,41.00034 0,72.00059c0,37.00031 0,80.00066 0,123.00101c0,37.00031 0,64.00052 0,88.00073c0,22.00018 0,40.00031 0,53.00043c0,12.00009 0,22.00018 0,30.00024c0,6.00006 0,11.00009 0,15.00012c0,2.00003 0,4.00003 0,6.00006c0,3.00003 0,6.00003 0,7.00006c0,1 0,2 0,2c0,2.00003 0,4.00003 0,6.00006c0,3.00003 0,5.00003 0,7.00006c0,2 0,7.00006 0,10.00006c0,2.00003 0,5.00006 0,8.00009c0,4.00003 0,8.00006 0,11.00006c0,2.00003 0,4.00006 0,6.00006c0,2.00003 1.00001,3.00003 1.00001,4.00003c0,1 1.00001,2.00003 1.00001,2.00003c0,4 -2,-41 -2,-37" stroke-width="20"/>
  <path fill="none" stroke="#000" id="svg_18" d="m96.77295,63.56439c-35.29777,0.7813 87.91858,-1 -8.03312,-0.10935c42.06573,-1.10935 132.44142,-0.54936 215.68037,0.10935c73.2587,0.57973 118.95893,3.68935 150.94429,11.59428c16.76719,4.14388 28.68815,7.40283 33.29653,15.07257c2.43283,4.04894 3.85774,10.36051 3.32966,17.39142c-0.54908,7.3104 -10.74074,20.05078 -29.96687,41.73942c-25.06781,28.27851 -55.62949,55.99215 -91.01053,80.00055c-29.21159,19.822 -128.74604,60.1569 -69.81285,37.26114c-9.78134,4.07159 29.35173,-15.20285 -16.75814,7.95657l-1.10989,0c-1.00869,0.20729 -11.52023,5.85199 -3.02607,0.62188" stroke-width="20"/>
  <path transform="rotate(0.00223225, 368, 427.161)" fill="none" stroke="#000" id="svg_19" d="m297.17403,341.28363c0,0 -16.51209,-19.53334 -16.16886,-18.69085c0.97078,2.38291 3.58753,3.64761 5.38129,5.47141c1.79376,1.8238 2.69064,3.64761 4.4844,5.47141c1.79378,1.8238 3.58754,3.64761 6.27818,6.38332c2.69065,2.73571 4.23239,5.75431 7.17507,8.20711c2.5008,2.08449 4.228,4.75255 6.27817,7.29525c2.41242,2.99196 3.65974,5.00354 5.3813,7.29522c1.96286,2.6129 4.228,4.75252 6.27817,7.29522c2.41243,2.99196 4.22802,4.75252 6.27818,7.29522c2.41243,2.99199 4.68191,5.28436 7.17506,8.20711c2.93822,3.44449 5.57881,6.19626 8.07196,9.11904c2.93819,3.44449 5.13374,6.58642 8.07193,10.03093c2.49315,2.92275 5.65953,6.12707 8.07193,9.11904c2.05016,2.54269 3.77302,5.30056 5.3813,7.29522c2.05016,2.54269 4.37467,4.6197 5.3813,6.38332c1.6231,2.84375 3.33112,4.75255 5.38128,7.29522c1.60829,1.99463 3.31177,4.72912 4.48443,6.38332c0.74163,1.0462 2.84587,2.60141 3.58753,3.64761c1.17263,1.65417 1.79375,4.5595 3.58753,6.38332c1.79375,1.82379 3.33112,4.75252 5.38128,7.29522c1.60829,1.99466 2.69065,4.5595 4.48443,6.38332c2.69065,2.73571 4.20865,5.64102 5.38128,7.29522c1.48329,2.09242 3.58753,3.64761 5.3813,5.47143c1.79378,1.82379 5.1388,5.68009 8.96883,10.03093c3.38364,3.84375 6.44883,6.27526 8.07193,9.11901c1.0066,1.76362 1.79378,2.73571 2.69065,3.64761c0.89688,0.91192 1.51805,1.99344 2.69065,3.64761c0.74163,1.04623 1.51799,1.99344 2.69065,3.64764c0.74163,1.0462 1.79375,1.82379 2.69063,2.73569c0.8969,0.91192 1.45055,0.98133 1.79378,1.82382c0.48539,1.19144 1.79375,1.82379 2.69065,2.73571c0.89688,0.9119 0.89688,1.82379 1.79375,2.73569c0.8969,0.91192 1.45055,0.98133 1.79378,1.82382c0.48539,1.19144 2.20524,1.54425 2.69065,2.73571c0.34323,0.84249 0.2627,1.179 0.89688,1.82379c0.63417,0.64479 0.89688,0.91192 0.89688,0.91192c0.89688,0 11.26325,14.26667 0.89688,0.9119c-10.36637,-13.35477 0.8969,0.9119 0.8969,0.9119c0,0 0.89688,0.9119 0.89688,0.9119c0.89688,0.91192 1.1596,1.17902 1.79378,1.82382c0.63418,0.6448 1.897,3.91186 0.89688,0.9119l0,0l0.89688,0" stroke-width="20"/>
  <path fill="none" stroke="#000" stroke-width="20" id="svg_24" d="m202.79603,299.50419c0,0 -8.63584,-0.00001 24.01571,-0.00001c53.83095,0 116.48662,0 166.78765,0c33.53401,0 58.24331,0 73.24535,0c7.94228,0 13.23712,0 15.88454,0c0.88249,0 1.76496,0 1.76496,0l2.50768,1l-31.36338,-1"/>
  <polyline fill="none" stroke="#000" stroke-width="10" points="680.0035452842712,318.50468277931213 680.0035452842712,318.50468277931213 " id="svg_25" stroke-linecap="round"/>
  <polyline fill="none" stroke="#000" stroke-width="10" points="736.0040059089661,159.50337493419647 736.0040059089661,159.50337493419647 " id="svg_26" stroke-linecap="round"/>
  <path id="svg_32" d="m390.00083,140.50268c-7.73483,0 -14.00005,-5.37019 -14.00005,-12.00005c0,-6.62986 6.26521,-12.00005 14.00005,-12.00005c7.73483,0 14.00005,5.37019 14.00005,12.00005c0,6.62986 -6.26521,12.00005 -14.00005,12.00005z" opacity="undefined" stroke-width="20" stroke="#000" fill="#000000"/>
  <ellipse fill="#000000" stroke="#000" stroke-width="10" cx="639.00321" cy="167.50344" id="svg_33"/>
  <path transform="rotate(13.8963, 380.381, 107.965)" id="svg_2" d="m319.45287,110.465l54.61334,-0.5l67.24386,-4.5l-121.8572,5z" stroke-width="20" stroke="#000" fill="#000000"/>
  <path transform="rotate(115.001, 500.736, 280.818)" id="svg_7" d="m572.34497,288.06433l-15.0778,-25.69288l-53.80111,36.4565l-56.35904,-83.35736l-17.98048,17.09537l73.55532,113.59992" stroke-width="20" stroke="#000" fill="#000000"/>
 </g>
</svg>