<?xml version="1.0" encoding="utf-8"?><!-- Uploaded to: SVG Repo, www.svgrepo.com, Generator: SVG Repo Mixer Tools -->
<svg width="800px" height="800px" viewBox="0 0 24 24" id="settings-alt" xmlns="http://www.w3.org/2000/svg" class="icon multi-color"><path id="secondary-fill" d="M15,12c0,.1,0,.21,0,.31A9,9,0,0,1,10.11,20l-.72-.72a1,1,0,0,0-.7-.29H6a1,1,0,0,1-1-1V15.31a1,1,0,0,0-.29-.7l-1.9-1.9a1,1,0,0,1,0-1.42l1.9-1.9A1,1,0,0,0,5,8.69V6A1,1,0,0,1,6,5H8.69a1,1,0,0,0,.7-.29L10.11,4A9,9,0,0,1,15,11.69C15,11.79,15,11.9,15,12Z" style="fill: rgb(44, 169, 188); stroke-width: 2;"></path><circle id="tertiary-fill" cx="12" cy="12" r="3" style="fill: #b7b7b7; stroke-width: 2;"></circle><path id="primary-stroke" d="M19.29,9.39l1.9,1.9a1,1,0,0,1,0,1.42l-1.9,1.9a1,1,0,0,0-.29.7V18a1,1,0,0,1-1,1H15.31a1,1,0,0,0-.7.29l-1.9,1.9a1,1,0,0,1-1.42,0l-1.9-1.9a1,1,0,0,0-.7-.29H6a1,1,0,0,1-1-1V15.31a1,1,0,0,0-.29-.7l-1.9-1.9a1,1,0,0,1,0-1.42l1.9-1.9A1,1,0,0,0,5,8.69V6A1,1,0,0,1,6,5H8.69a1,1,0,0,0,.7-.29l1.9-1.9a1,1,0,0,1,1.42,0l1.9,1.9a1,1,0,0,0,.7.29H18a1,1,0,0,1,1,1V8.69A1,1,0,0,0,19.29,9.39ZM12,9a3,3,0,1,0,3,3A3,3,0,0,0,12,9Z" style="fill: none; stroke: rgb(0, 0, 0); stroke-linecap: round; stroke-linejoin: round; stroke-width: 2;"></path></svg>