<svg width="600" height="600" xmlns="http://www.w3.org/2000/svg">
 <title>Angry Copy</title>

 <g id="Layer_1">
  <title>Layer 1</title>
  <path fill="none" stroke="#000" id="svg_14" d="m142.99866,68.50227c0,0 0,4.00003 0,14.00012c0,17.00014 0,41.00034 0,72.00059c0,37.00031 0,80.00066 0,123.00101c0,37.00031 0,64.00052 0,88.00073c0,22.00018 0,40.00031 0,53.00043c0,12.00009 0,22.00018 0,30.00024c0,6.00006 0,11.00009 0,15.00012c0,2.00003 0,4.00003 0,6.00006c0,3.00003 0,6.00003 0,7.00006c0,1 0,2 0,2c0,2.00003 0,4.00003 0,6.00006c0,3.00003 0,5.00003 0,7.00006c0,2 0,7.00006 0,10.00006c0,2.00003 0,5.00006 0,8.00009c0,4.00003 0,8.00006 0,11.00006c0,2.00003 0,4.00006 0,6.00006c0,2.00003 1.00001,3.00003 1.00001,4.00003c0,1 1.00001,2.00003 1.00001,2.00003c0,4 -2,-41 -2,-37" stroke-width="20"/>
  <path fill="none" stroke="#000" id="svg_18" d="m96.77295,63.56439c-35.29777,0.7813 87.91858,-1 -8.03312,-0.10935c42.06573,-1.10935 132.44142,-0.54936 215.68037,0.10935c73.2587,0.57973 118.95893,3.68935 150.94429,11.59428c16.76719,4.14388 28.68815,7.40283 33.29653,15.07257c2.43283,4.04894 3.85774,10.36051 3.32966,17.39142c-0.54908,7.3104 -10.74074,20.05078 -29.96687,41.73942c-25.06781,28.27851 -55.62949,55.99215 -91.01053,80.00055c-29.21159,19.822 -128.74604,60.1569 -69.81285,37.26114c-9.78134,4.07159 29.35173,-15.20285 -16.75814,7.95657l-1.10989,0c-1.00869,0.20729 -11.52023,5.85199 -3.02607,0.62188" stroke-width="20"/>
  <path transform="rotate(0.00223225, 368, 427.161)" fill="none" stroke="#000" id="svg_19" d="m297.17403,341.28363c0,0 -16.51209,-19.53334 -16.16886,-18.69085c0.97078,2.38291 3.58753,3.64761 5.38129,5.47141c1.79376,1.8238 2.69064,3.64761 4.4844,5.47141c1.79378,1.8238 3.58754,3.64761 6.27818,6.38332c2.69065,2.73571 4.23239,5.75431 7.17507,8.20711c2.5008,2.08449 4.228,4.75255 6.27817,7.29525c2.41242,2.99196 3.65974,5.00354 5.3813,7.29522c1.96286,2.6129 4.228,4.75252 6.27817,7.29522c2.41243,2.99196 4.22802,4.75252 6.27818,7.29522c2.41243,2.99199 4.68191,5.28436 7.17506,8.20711c2.93822,3.44449 5.57881,6.19626 8.07196,9.11904c2.93819,3.44449 5.13374,6.58642 8.07193,10.03093c2.49315,2.92275 5.65953,6.12707 8.07193,9.11904c2.05016,2.54269 3.77302,5.30056 5.3813,7.29522c2.05016,2.54269 4.37467,4.6197 5.3813,6.38332c1.6231,2.84375 3.33112,4.75255 5.38128,7.29522c1.60829,1.99463 3.31177,4.72912 4.48443,6.38332c0.74163,1.0462 2.84587,2.60141 3.58753,3.64761c1.17263,1.65417 1.79375,4.5595 3.58753,6.38332c1.79375,1.82379 3.33112,4.75252 5.38128,7.29522c1.60829,1.99466 2.69065,4.5595 4.48443,6.38332c2.69065,2.73571 4.20865,5.64102 5.38128,7.29522c1.48329,2.09242 3.58753,3.64761 5.3813,5.47143c1.79378,1.82379 5.1388,5.68009 8.96883,10.03093c3.38364,3.84375 6.44883,6.27526 8.07193,9.11901c1.0066,1.76362 1.79378,2.73571 2.69065,3.64761c0.89688,0.91192 1.51805,1.99344 2.69065,3.64761c0.74163,1.04623 1.51799,1.99344 2.69065,3.64764c0.74163,1.0462 1.79375,1.82379 2.69063,2.73569c0.8969,0.91192 1.45055,0.98133 1.79378,1.82382c0.48539,1.19144 1.79375,1.82379 2.69065,2.73571c0.89688,0.9119 0.89688,1.82379 1.79375,2.73569c0.8969,0.91192 1.45055,0.98133 1.79378,1.82382c0.48539,1.19144 2.20524,1.54425 2.69065,2.73571c0.34323,0.84249 0.2627,1.179 0.89688,1.82379c0.63417,0.64479 0.89688,0.91192 0.89688,0.91192c0.89688,0 11.26325,14.26667 0.89688,0.9119c-10.36637,-13.35477 0.8969,0.9119 0.8969,0.9119c0,0 0.89688,0.9119 0.89688,0.9119c0.89688,0.91192 1.1596,1.17902 1.79378,1.82382c0.63418,0.6448 1.897,3.91186 0.89688,0.9119l0,0l0.89688,0" stroke-width="20"/>
  <path fill="none" stroke="#000" stroke-width="20" id="svg_24" d="m201.76342,299.50419c0,0 -8.36336,-0.00001 23.25795,-0.00001c52.13245,0 112.81118,0 161.52509,0c32.47593,0 56.40559,0 70.93429,0c7.69168,0 12.81945,0 15.38334,0c0.85465,0 1.70927,0 1.70927,0l2.42855,1l-30.37379,-1"/>
  <polyline fill="none" stroke="#000" stroke-width="10" points="680.0035452842712,318.50468277931213 680.0035452842712,318.50468277931213 " id="svg_25" stroke-linecap="round"/>
  <polyline fill="none" stroke="#000" stroke-width="10" points="736.0040059089661,159.50337493419647 736.0040059089661,159.50337493419647 " id="svg_26" stroke-linecap="round"/>
  <path id="svg_32" d="m390.00083,140.50268c-7.73483,0 -14.00005,-5.37019 -14.00005,-12.00005c0,-6.62986 6.26521,-12.00005 14.00005,-12.00005c7.73483,0 14.00005,5.37019 14.00005,12.00005c0,6.62986 -6.26521,12.00005 -14.00005,12.00005z" opacity="undefined" stroke-width="20" stroke="#000" fill="#000000"/>
  <ellipse fill="#000000" stroke="#000" stroke-width="10" cx="639.00321" cy="167.50344" id="svg_33"/>
  <path transform="rotate(-144.181, 504.967, 181.645)" id="svg_20" d="m487.65419,95.97135c-5.40837,-0.54655 -15.14312,7.65621 -12.9725,-6.36405c3.76298,-8.60428 13.95131,-4.51336 12.79315,5.51356l0.13226,0.6272l0.04709,0.22328l0,0zm13.08156,-18.59843c-5.16199,11.66553 -16.79148,12.49975 -25.52361,16.84446c-4.04433,3.06062 -20.44072,5.04971 -14.19744,-4.29404c8.91577,-7.7975 19.88182,-9.67969 29.91998,-13.93158c3.23204,-1.00217 6.98111,-1.39561 9.80106,1.38116zm-26.69853,12.33725c-3.93775,-17.8314 -7.87548,-35.66278 -11.81322,-53.49418c4.81719,-8.64552 15.438,-4.89633 13.96663,6.62795c3.06139,13.86294 6.12277,27.72593 9.18415,41.58891m-4.24287,9.38251c17.19984,79.52248 37.20123,158.11022 62.19555,234.00003m-57.65412,-236.06888c17.37547,74.83649 35.15743,149.7515 59.1417,221.4536c0.33014,5.55541 11.283,22.21171 1.35314,17.91385c-3.08786,-1.95228 -8.36158,-0.62482 -8.93359,-6.35247c-23.43053,-74.71168 -43.74538,-151.11982 -60.91127,-228.73618" stroke-width="20" stroke="#000" fill="#FFAAB8"/>
 </g>
</svg>